# xmcd CD database file
#
# Track frame offsets:
#	182
#	19957
#	35285
#	45175
#	64055
#	72530
#	85605
#	95745
#	116742
#	126972
#	137620
#	163177
#	179432
#	192380
#	201785
#	211152
#	237307
#	253185
#	272425
#
# Disc length: 3896 seconds
#
# Revision: 0
# Processed by: cddbd v1.4PL0 Copyright (c) Steve Scherf et al.
# Submitted via: Feurio! 1.65 - http://www.feurio.com
#
DISCID=150f3613
DTITLE=Detonators! - Sneakin' Around
DYEAR=1996
DGENRE=blues
TTITLE0=It'll Be Me
TTITLE1=Keep On Lovin' Me Baby
TTITLE2=She's Dynamite
TTITLE3=I'll Find My Way
TTITLE4=Your Feet's Too Big
TTITLE5=Act Like You Love Me
TTITLE6=I Love The Life I Live
TTITLE7=Bad Bad Whisky
TTITLE8=Stuff You Gotta Match
TTITLE9=She's A Cool Operator
TTITLE10=Tell That Woman
TTITLE11=Morning Glory
TTITLE12=Diggin' The Boogie
TTITLE13=Reet, Petite And Gone
TTITLE14=The Last Time
TTITLE15=In The Evening
TTITLE16=Sneakin' Around
TTITLE17=She Never
TTITLE18=Midnight Boogie
EXTD=Indigo Records, 1996
EXTT0=
EXTT1=
EXTT2=
EXTT3=
EXTT4=
EXTT5=
EXTT6=
EXTT7=
EXTT8=
EXTT9=
EXTT10=
EXTT11=
EXTT12=
EXTT13=
EXTT14=
EXTT15=
EXTT16=
EXTT17=
EXTT18=
PLAYORDER=
